<svg xmlns="http://www.w3.org/2000/svg" viewBox="0 0 500 500"><g id="freepik--Shadow--inject-173"><ellipse id="freepik--path--inject-173" cx="250" cy="416.24" rx="193.89" ry="11.32" style="fill:#f5f5f5"></ellipse></g><g id="freepik--Motorcycle--inject-173"><path d="M136.5,378.61l4.89,11.24a11.88,11.88,0,0,0,10.9,7.15h20.47a10.25,10.25,0,0,0,7.24-3h38.23a9.32,9.32,0,0,0,7.56-3.87l5.05-7Z" style="fill:#2e353a"></path><path d="M167.65,334.05c0,5.39,21.48,43.67,23.63,45.19s30.19-.18,30.19-.18L219.38,387h-77l-32-62.11,21.16-30.53,38.55,1.07S167.65,328.67,167.65,334.05Z" style="fill:#407BFF"></path><path d="M167.65,334.05c0,5.39,21.48,43.67,23.63,45.19s30.19-.18,30.19-.18L219.38,387h-77l-32-62.11,21.16-30.53,38.55,1.07S167.65,328.67,167.65,334.05Z" style="opacity:0.2;isolation:isolate"></path><ellipse cx="105.1" cy="378.69" rx="31.41" ry="37.89" style="fill:#2e353a"></ellipse><ellipse cx="99.84" cy="378.69" rx="19.81" ry="23.9" style="fill:#fff"></ellipse><ellipse cx="95.29" cy="378.37" rx="8.25" ry="9.95" style="fill:#407BFF"></ellipse><ellipse cx="95.29" cy="378.37" rx="8.25" ry="9.95" style="opacity:0.4;isolation:isolate"></ellipse><path d="M280.07,321.45S251.72,343.19,240.91,388h-45.4l43-70,22.68-9.43Z" style="fill:#407BFF"></path><path d="M283,319.24s-26.51,20.27-39.17,58.41A15,15,0,0,1,229.64,388H195.51l43-70,22.68-9.43Z" style="opacity:0.4;isolation:isolate"></path><path d="M280.27,321H262.76a16.66,16.66,0,0,0-9.36,2.74c-10.39,6.92-35,26.22-37.56,56.8a8.1,8.1,0,0,1-8,7.46H131.73a72.28,72.28,0,0,1-36.4-9.83L73.57,365.49a13,13,0,0,1-6.18-13.82c2.59-12.49,9.89-33.92,30.78-42.3.33-.15-.17-.28.83-.4V296h54.56s-10.94,26.09-10.94,36.85C142.62,343,153.38,382,167.3,386h19a14.38,14.38,0,0,0,12.28-7.5c9.26-16.53,29.83-59.39,23.42-99.9-.75-4.73,2.89-9.6,7.69-9.6h24.5s22,25.52,29.14,47.09C284.06,318.19,282.49,321,280.27,321Z" style="fill:#407BFF"></path><path d="M241,260.88h-7a8.06,8.06,0,0,1-5.05-1.78l-14.39-11.65a3.21,3.21,0,0,0-2-.72H184.9a2,2,0,0,1,0-4h27.64a7.16,7.16,0,0,1,4.52,1.61L231.46,256a4,4,0,0,0,2.53.89h7a4.06,4.06,0,0,0,4-3.46l.63-4.5a7.25,7.25,0,0,1,7.13-6.19H258a2,2,0,0,1,0,4h-5.27a3.23,3.23,0,0,0-3.17,2.75l-.63,4.5A8.07,8.07,0,0,1,241,260.88Z" style="fill:#2e353a"></path><path d="M228.65,252.4s.09,4.72-4.34,4.42l-1.44,5.12a5.36,5.36,0,0,0,.61,4.31l3.13,5h29l2.28-4.3a3.65,3.65,0,0,0-.61-4.27l-8.64-8.83a4.85,4.85,0,0,0-3.48-1.47Z" style="fill:#407BFF"></path><path d="M228.65,252.4s.09,4.72-4.34,4.42l-1.44,5.12a5.36,5.36,0,0,0,.61,4.31l3.13,5h29l2.28-4.3a3.65,3.65,0,0,0-.61-4.27l-8.64-8.83a4.85,4.85,0,0,0-3.48-1.47Z" style="opacity:0.4;isolation:isolate"></path><ellipse cx="278.45" cy="378.69" rx="31.41" ry="37.89" style="fill:#2e353a"></ellipse><ellipse cx="273.2" cy="378.69" rx="19.81" ry="23.9" style="fill:#fff"></ellipse><path d="M309.36,354.25c-3.31-5.63-12.16-17.8-28.07-21.36a31.08,31.08,0,0,0-12.43-.36l-.07-.17.07-.15-.13,0L266,326h-3.11a11.63,11.63,0,0,0-7,2.34l-5.46,4.1,2.57,8.91a27.09,27.09,0,0,0-2.08,2.52,45.18,45.18,0,0,0-9.15,19.7,2.11,2.11,0,0,0,2.09,2.43h1.64a2.11,2.11,0,0,0,2-1.34,27.47,27.47,0,0,1,6.79-10.21l9.11,23.72,7.33-3.08-2.57-29.56s16.86-4.74,27.9,8.9a6.88,6.88,0,0,0,5.34,2.57h6.41A1.83,1.83,0,0,0,309.36,354.25Z" style="fill:#407BFF"></path><path d="M309.36,354.25c-3.31-5.63-12.16-17.8-28.07-21.36a31.08,31.08,0,0,0-12.43-.36l-.07-.17.07-.15-.13,0L266,326h-3.11a11.63,11.63,0,0,0-7,2.34l-5.46,4.1,2.57,8.91a27.09,27.09,0,0,0-2.08,2.52,45.18,45.18,0,0,0-9.15,19.7,2.11,2.11,0,0,0,2.09,2.43h1.64a2.11,2.11,0,0,0,2-1.34,27.47,27.47,0,0,1,6.79-10.21l9.11,23.72,7.33-3.08-2.57-29.56s16.86-4.74,27.9,8.9a6.88,6.88,0,0,0,5.34,2.57h6.41A1.83,1.83,0,0,0,309.36,354.25Z" style="opacity:0.2;isolation:isolate"></path><ellipse cx="268.65" cy="378.37" rx="8.25" ry="9.95" style="fill:#407BFF"></ellipse><ellipse cx="268.65" cy="378.37" rx="8.25" ry="9.95" style="opacity:0.4;isolation:isolate"></ellipse><path d="M238.94,272.36s5.19,32.68,22.33,32.9c16.07.22,17.57-30.46,2.24-35.17C251.13,266.28,238.94,272.36,238.94,272.36Z" style="fill:#407BFF"></path><path d="M238.94,272.36s5.19,32.68,22.33,32.9c16.07.22,17.57-30.46,2.24-35.17C251.13,266.28,238.94,272.36,238.94,272.36Z" style="opacity:0.2;isolation:isolate"></path><path d="M273.13,287.39c.38,8.29-4.62,15-11.17,15s-12.16-6.73-12.54-15,4.62-15,11.16-15S272.75,279.09,273.13,287.39Z" style="fill:#fff"></path><polygon points="256.82 265.96 241.94 265.96 243.12 264.04 256.82 264.04 256.82 265.96" style="fill:#407BFF"></polygon><path d="M175,294.62v3.76c0,3.41-2.79,5.62-6.21,5.62H101.17c-3.43,0-6.17-2.21-6.17-5.62v-3.76c0-3.41,2.74-5.62,6.17-5.62h67.62C172.21,289,175,291.21,175,294.62Z" style="fill:#2e353a"></path><path d="M153,294.62v3.76a5.37,5.37,0,0,1-5.76,5.62H101.17c-3.43,0-6.17-2.21-6.17-5.62v-3.76c0-3.41,2.74-5.62,6.17-5.62h46.07A5.37,5.37,0,0,1,153,294.62Z" style="fill:#fff;opacity:0.2;isolation:isolate"></path><path d="M144.49,363.88V388H131.73a72.28,72.28,0,0,1-36.4-9.83L73.57,365.49a13,13,0,0,1-6.18-13.82c2.59-12.49,10-33.92,30.93-42.3l1,.05h8.45A25.64,25.64,0,0,1,131,324.2l9,19.3A48.16,48.16,0,0,1,144.49,363.88Z" style="opacity:0.2;isolation:isolate"></path><rect x="204.58" y="228" width="2" height="17.83" transform="translate(-101.64 173.61) rotate(-37.41)" style="fill:#2e353a"></rect><path d="M194.45,227.5h5.1a2.71,2.71,0,0,1,2.49,1.64l.68,1.59a2.71,2.71,0,0,1-2.49,3.77h-5.55a2.7,2.7,0,0,1-2.68-2.32l-.23-1.59A2.71,2.71,0,0,1,194.45,227.5Z" style="fill:#407BFF"></path><rect x="245.03" y="237" width="12.94" height="2" transform="translate(-33.22 435.06) rotate(-78.11)" style="fill:#2e353a"></rect><path d="M258.82,227.5h-5.49a2.23,2.23,0,0,0-2.21,1.92l-.37,2.53A2.24,2.24,0,0,0,253,234.5h5.48a2.23,2.23,0,0,0,2.21-1.92l.37-2.53A2.24,2.24,0,0,0,258.82,227.5Z" style="fill:#407BFF"></path><path d="M211.77,292.63l-8.67-18.27a4.77,4.77,0,0,0-6.26-2.31l-22.63,10a4.73,4.73,0,0,0-2.19,2l-23.35,40.18a4.79,4.79,0,0,0,2.65,6.95l33,10.79a4.78,4.78,0,0,0,5.76-2.38l21.63-42.77A4.72,4.72,0,0,0,211.77,292.63Zm-13.94-14.08a2.75,2.75,0,1,1,3.47-1.76A2.76,2.76,0,0,1,197.83,278.55Z" style="fill:#407BFF"></path><path d="M211.77,292.63l-8.67-18.27a4.77,4.77,0,0,0-6.26-2.31l-22.63,10a4.73,4.73,0,0,0-2.19,2l-23.35,40.18a4.79,4.79,0,0,0,2.65,6.95l33,10.79a4.78,4.78,0,0,0,5.76-2.38l21.63-42.77A4.72,4.72,0,0,0,211.77,292.63Zm-13.94-14.08a2.75,2.75,0,1,1,3.47-1.76A2.76,2.76,0,0,1,197.83,278.55Z" style="fill:#fff;opacity:0.6000000000000001;isolation:isolate"></path><path d="M194.59,302.4a8.06,8.06,0,0,0-2.19-3.27,12.07,12.07,0,0,0-4.2-2.47l-5.78,10.93a.52.52,0,0,1,.15.07.37.37,0,0,0,.14.07,38.62,38.62,0,0,1,3.89,2.57,11.16,11.16,0,0,1,2.57,2.64,5.67,5.67,0,0,1,1,2.93,7.15,7.15,0,0,1-1,3.51,9.48,9.48,0,0,1-2.62,3.18,9.84,9.84,0,0,1-3.54,1.7,13.3,13.3,0,0,1-4.19.33,20.67,20.67,0,0,1-4.62-.89l-2.1,4-1.62-.53,2.13-4a15.92,15.92,0,0,1-9-7.83l2.76-1.83a10.47,10.47,0,0,0,2.68,4,15.15,15.15,0,0,0,5,3.17l5.78-10.93-.22-.17a43.17,43.17,0,0,1-3.69-2.5,9.71,9.71,0,0,1-2.34-2.45,4.89,4.89,0,0,1-.81-2.68,7.09,7.09,0,0,1,.94-3.18,10.18,10.18,0,0,1,2.55-3.17,10.44,10.44,0,0,1,3.39-1.87,12.47,12.47,0,0,1,4-.6,17.67,17.67,0,0,1,4.46.62l2.18-4.14,1.62.53-2.17,4.09a14.26,14.26,0,0,1,4.67,2.66,12.13,12.13,0,0,1,2.85,3.74Zm-8.84,16.21a4.39,4.39,0,0,0,.61-2.25,3.91,3.91,0,0,0-.69-2,8.38,8.38,0,0,0-1.83-1.94,32.57,32.57,0,0,0-2.89-2.05l-5.67,10.72a12.52,12.52,0,0,0,6.42.64A5.75,5.75,0,0,0,185.75,318.61Zm-8.69-19.26a4.78,4.78,0,0,0-.64,2.12,3.39,3.39,0,0,0,.53,1.81,6.71,6.71,0,0,0,1.64,1.73,32.64,32.64,0,0,0,2.72,1.88l5.61-10.6a10.19,10.19,0,0,0-6.21-.16A6.52,6.52,0,0,0,177.06,299.35Z" style="fill:#2e353a"></path><path d="M200.63,274.25s10.62.5,9.5-9.25c-1.44-12.45,13.12-12.87,11.37-17.62" style="fill:none;stroke:#407BFF;stroke-linecap:round;stroke-linejoin:round"></path></g></svg>
